<svg xmlns="http://www.w3.org/2000/svg" viewBox="0 0 320 240" width="320" height="240" fill="none"><ellipse cx="161" cy="201" rx="96" ry="13" style="fill:var(--ml-background-subtle, #f3f2ee);stroke:none;stroke-width:0;stroke-linecap:round;stroke-linejoin:round"/><path d="M64 202h26m152 0h17" style="fill:none;stroke:color-mix(in srgb, var(--ml-border, #d5d4dc) 35%, var(--ml-text-faint, #9697a7));stroke-width:1;stroke-linecap:round;stroke-linejoin:round"/><circle cx="68" cy="183" r="2" style="fill:color-mix(in srgb, var(--ml-border, #d5d4dc) 35%, var(--ml-text-faint, #9697a7));stroke:none;stroke-width:1.5;stroke-linecap:round;stroke-linejoin:round"/><circle cx="250" cy="167" r="2" style="fill:color-mix(in srgb, var(--ml-border, #d5d4dc) 35%, var(--ml-text-faint, #9697a7));stroke:none;stroke-width:1.5;stroke-linecap:round;stroke-linejoin:round"/><path d="M90 171l69-26 75 27-69 26z" style="fill:var(--ml-background-subtle, #f3f2ee);stroke:color-mix(in srgb, var(--ml-border, #d5d4dc) 35%, var(--ml-text-faint, #9697a7));stroke-width:1.5;stroke-linecap:round;stroke-linejoin:round"/><path d="M90 171v9l75 27 69-26v-9l-69 26z" style="fill:color-mix(in oklab, var(--ml-surface-elevated, #fffefa) 90%, var(--ml-text-faint, #9697a7));stroke:color-mix(in srgb, var(--ml-border, #d5d4dc) 35%, var(--ml-text-faint, #9697a7));stroke-width:1.5;stroke-linecap:round;stroke-linejoin:round"/><path d="M111 67c0-15 12-27 27-27 17-22 55-14 59 11 24-2 37 27 20 43H116c-16-3-21-20-5-27z" style="fill:var(--ml-primary-subtle, #eceefa);stroke:color-mix(in srgb, var(--ml-border, #d5d4dc) 35%, var(--ml-text-faint, #9697a7));stroke-width:1.5;stroke-linecap:round;stroke-linejoin:round"/><rect x="129" y="103" width="71" height="80" rx="7" style="fill:var(--ml-background-subtle, #f3f2ee);stroke:color-mix(in srgb, var(--ml-border, #d5d4dc) 35%, var(--ml-text-faint, #9697a7));stroke-width:1.5;stroke-linecap:round;stroke-linejoin:round"/><rect x="125" y="99" width="71" height="80" rx="7" style="fill:color-mix(in oklab, var(--ml-surface-elevated, #fffefa) 90%, var(--ml-text-faint, #9697a7));stroke:color-mix(in srgb, var(--ml-border, #d5d4dc) 35%, var(--ml-text-faint, #9697a7));stroke-width:1.5;stroke-linecap:round;stroke-linejoin:round"/><path d="M139 151h39" style="fill:none;stroke:color-mix(in srgb, var(--ml-border, #d5d4dc) 35%, var(--ml-text-faint, #9697a7));stroke-width:2;stroke-linecap:round;stroke-linejoin:round"/><path d="M139 160h28.08" style="fill:none;stroke:color-mix(in srgb, var(--ml-border, #d5d4dc) 35%, var(--ml-text-faint, #9697a7));stroke-width:2;stroke-linecap:round;stroke-linejoin:round"/><path d="M182 99v17h14" style="fill:var(--ml-background-subtle, #f3f2ee);stroke:color-mix(in srgb, var(--ml-border, #d5d4dc) 35%, var(--ml-text-faint, #9697a7));stroke-width:1.5;stroke-linecap:round;stroke-linejoin:round"/><circle cx="160" cy="105" r="25" style="fill:var(--ml-primary, #6574cd);stroke:none;stroke-width:1.5;stroke-linecap:round;stroke-linejoin:round"/><path d="M160 119V91m-10 10 10-10 10 10" style="fill:none;stroke:var(--ml-primary-foreground, #ffffff);stroke-width:3.2;stroke-linecap:round;stroke-linejoin:round"/><path d="M108 112v28m-4-5 4 5 4-5" style="fill:none;stroke:var(--ml-text-faint, #9697a7);stroke-width:1.4;stroke-linecap:round;stroke-linejoin:round;stroke-dasharray:3 5"/><path d="M214 132v-22m-4 5 4-5 4 5" style="fill:none;stroke:var(--ml-text-faint, #9697a7);stroke-width:1.4;stroke-linecap:round;stroke-linejoin:round"/><path d="M232 66Q232 72 238 72Q232 72 232 78Q232 72 226 72Q232 72 232 66" style="fill:var(--ml-chart-2, #eeaa65);stroke:none;stroke-width:1.5;stroke-linecap:round;stroke-linejoin:round"/><circle cx="91" cy="85" r="3" style="fill:var(--ml-chart-2, #eeaa65);stroke:none;stroke-width:1.5;stroke-linecap:round;stroke-linejoin:round"/></svg>
